HIERARCHY
ROOT Root
{
	OFFSET 0.00000 0.00000 0.00000
	CHANNELS 6 Xposition Yposition Zposition Zrotation Xrotation Yrotation
	JOINT Hips
	{
		OFFSET 0 0 0	
		CHANNELS 3 Zrotation Xrotation Yrotation
		JOINT Spine
		{
			OFFSET 0 4 0	
			CHANNELS 3 Zrotation Xrotation Yrotation
			JOINT Spine1
			{
				OFFSET 0 19.4 0	
				CHANNELS 3 Zrotation Xrotation Yrotation
				JOINT Spine2
				{
					OFFSET 0 16.6 0	
					CHANNELS 3 Zrotation Xrotation Yrotation
					JOINT LeftCollar
					{
						OFFSET 0 10 0	
						CHANNELS 3 Zrotation Xrotation Yrotation
						JOINT LeftArm
						{
							OFFSET 15.6 -2 3	
							CHANNELS 3 Zrotation Xrotation Yrotation
							JOINT LeftForeArm
							{
								OFFSET 3.5 -27 -1	
								CHANNELS 3 Zrotation Xrotation Yrotation
								JOINT LeftHand
								{
									OFFSET 1 -27 1	
									CHANNELS 3 Zrotation Xrotation Yrotation
									End Site
									{
										OFFSET 0 -15 0
									}
								}
							}
						}
					}
					JOINT RightCollar
					{
						OFFSET 0 10 0	
						CHANNELS 3 Zrotation Xrotation Yrotation
						JOINT RightArm
						{
							OFFSET -15.6 -2 3	
							CHANNELS 3 Zrotation Xrotation Yrotation
							JOINT RightForeArm
							{
								OFFSET -3.5 -27 -1	
								CHANNELS 3 Zrotation Xrotation Yrotation
								JOINT RightHand
								{
									OFFSET -1 -27 1	
									CHANNELS 3 Zrotation Xrotation Yrotation
									End Site
									{
										OFFSET 0 -15 0
									}
								}
							}
						}
					}
					JOINT Neck
					{
						OFFSET 0 10 0	
						CHANNELS 3 Zrotation Xrotation Yrotation
						JOINT Head
						{
							OFFSET 0 12.7 3	
							CHANNELS 3 Zrotation Xrotation Yrotation
							End Site
							{
								OFFSET 0 12.7 3
							}
						}
					}
				}
			}
		}
	}
	JOINT LeftHip
	{
		OFFSET 0 0 0	
		CHANNELS 3 Zrotation Xrotation Yrotation
		JOINT LeftUpLeg
		{
			OFFSET 8.8 -6 0	
			CHANNELS 3 Zrotation Xrotation Yrotation
			JOINT LeftLeg
			{
				OFFSET 0 -39 2	
				CHANNELS 3 Zrotation Xrotation Yrotation
				JOINT LeftFoot
				{
					OFFSET 0 -43 -2	
					CHANNELS 3 Zrotation Xrotation Yrotation
					JOINT LeftFootFront
					{
						OFFSET 0 -7 8.5	
						CHANNELS 3 Zrotation Xrotation Yrotation
						End Site
						{
							OFFSET 0 -0.5 9
						}
					}
				}
				JOINT LeftHeel
				{
					OFFSET 0 -43 -2	
					CHANNELS 3 Zrotation Xrotation Yrotation
					End Site
					{
						OFFSET 0 -7.5 -5
					}
				}
			}
		}
	}
	JOINT RightHip
	{
		OFFSET 0 0 0	
		CHANNELS 3 Zrotation Xrotation Yrotation
		JOINT RightUpLeg
		{
			OFFSET -8.8 -6 0	
			CHANNELS 3 Zrotation Xrotation Yrotation
			JOINT RightLeg
			{
				OFFSET 0 -39 2	
				CHANNELS 3 Zrotation Xrotation Yrotation
				JOINT RightFoot
				{
					OFFSET 0 -43 -2	
					CHANNELS 3 Zrotation Xrotation Yrotation
					JOINT RightFootFront
					{
						OFFSET 0 -7 8.5	
						CHANNELS 3 Zrotation Xrotation Yrotation
						End Site
						{
							OFFSET 0 -0.5 9
						}
					}
				}
				JOINT RightHeel
				{
					OFFSET 0 -43 -2	
					CHANNELS 3 Zrotation Xrotation Yrotation
					End Site
					{
						OFFSET 0 -7.5 -5
					}
				}
			}
		}
	}
}
MOTION
Frames: 8
Frame Time: 0.025
0 96.624 0 -0 0 -0 0.88964 -8.4579 -3.1862 -0.38167 -7.8805 0.29561 -0.38167 -7.8805 0.29561 -0.323 -6.6195 0.25159 -0 0 -0 -0.20791 8.5022 9.3369 13.98 -0.93612 13.855 -0 0 -0 -0 0 -0 0.37678 9.9134 -15.072 6.3249 -0.099913 4.4461 -0 0 -0 2.3985 -1.2063 0.25498 2.3985 -1.2063 0.25498 0.88964 -8.4579 -3.1862 -1.8566 9.1152 3.6926 -1.3658 5.6558 -2.2707 -0 0 -0 -0 0 -0 -0 0 -0 0.88964 -8.4579 -3.1862 0.85652 10.431 -10.599 0.093889 4.8901 3.3336 -0 0 -0 -0 0 -0 -0 0 -0 
0 96.624 0 -0 0 -0 0.89235 -8.4516 -3.2025 -0.38582 -7.8678 0.3045 -0.38582 -7.8678 0.3045 -0.32656 -6.6089 0.25908 -0 0 -0 -0.20404 8.4727 9.2943 14.017 -0.97721 13.788 -0 0 -0 -0 0 -0 0.37202 9.8946 -15.039 6.3316 -0.10945 4.4387 -0 0 -0 2.4058 -1.2245 0.2597 2.4058 -1.2244 0.2597 0.89235 -8.4516 -3.2025 -1.8621 9.1062 3.7082 -1.3669 5.6564 -2.2683 -0 0 -0 -0 0 -0 -0 0 -0 0.89235 -8.4516 -3.2025 0.84801 10.432 -10.589 0.097137 4.8798 3.3451 -0 0 -0 -0 0 -0 -0 0 -0 
0 96.624 0 -0 0 -0 0.89501 -8.4413 -3.2222 -0.38646 -7.856 0.31681 -0.38646 -7.856 0.31681 -0.32721 -6.5989 0.26941 -0 0 -0 -0.20318 8.4403 9.2369 14.038 -1.0098 13.731 -0 0 -0 -0 0 -0 0.35997 9.8784 -15.013 6.3425 -0.1124 4.4337 -0 0 -0 2.4117 -1.2428 0.25958 2.4117 -1.2428 0.25958 0.89501 -8.4413 -3.2222 -1.8673 9.0926 3.7262 -1.3692 5.6587 -2.268 -0 0 -0 -0 0 -0 -0 0 -0 0.89501 -8.4413 -3.2222 0.83903 10.429 -10.574 0.10182 4.8702 3.3574 -0 0 -0 -0 0 -0 -0 0 -0 
0 96.624 0 -0 0 -0 0.89611 -8.4287 -3.2416 -0.3894 -7.841 0.33844 -0.3894 -7.841 0.33844 -0.32987 -6.5863 0.28758 -0 0 -0 -0.19443 8.4021 9.1491 14.041 -1.0452 13.705 -0 0 -0 -0 0 -0 0.36326 9.8574 -15.019 6.3504 -0.11424 4.4332 -0 0 -0 2.4203 -1.2648 0.23998 2.4203 -1.2648 0.23998 0.89611 -8.4287 -3.2416 -1.8705 9.0758 3.7402 -1.3728 5.6655 -2.2663 -0 0 -0 -0 0 -0 -0 0 -0 0.89611 -8.4287 -3.2416 0.83204 10.423 -10.561 0.10543 4.8597 3.3705 -0 0 -0 -0 0 -0 -0 0 -0 
0 96.624 0 -0 0 -0 0.89593 -8.4194 -3.2556 -0.3974 -7.8216 0.35801 -0.3974 -7.8216 0.35801 -0.33676 -6.57 0.30407 -0 0 -0 -0.17768 8.3621 9.0711 14.05 -1.1009 13.667 -0 0 -0 -0 0 -0 0.38054 9.8292 -15.032 6.3561 -0.11216 4.4429 -0 0 -0 2.4329 -1.2884 0.21667 2.4329 -1.2884 0.21667 0.89593 -8.4194 -3.2556 -1.8733 9.0644 3.7444 -1.3758 5.6735 -2.2609 -0 0 -0 -0 0 -0 -0 0 -0 0.89593 -8.4194 -3.2556 0.82843 10.422 -10.556 0.107 4.8463 3.3834 -0 0 -0 -0 0 -0 -0 0 -0 
0 96.624 0 -0 0 -0 0.89527 -8.417 -3.2648 -0.4045 -7.801 0.36561 -0.4045 -7.801 0.36561 -0.34278 -6.5527 0.31051 -0 0 -0 -0.16655 8.3251 9.0325 14.062 -1.162 13.608 -0 0 -0 -0 0 -0 0.3879 9.7975 -15.028 6.3641 -0.10301 4.4587 -0 0 -0 2.4404 -1.3078 0.20873 2.4404 -1.3078 0.20874 0.89527 -8.417 -3.2648 -1.8759 9.0628 3.7393 -1.3782 5.6792 -2.2535 -0 0 -0 -0 0 -0 -0 0 -0 0.89527 -8.417 -3.2648 0.82762 10.427 -10.559 0.10731 4.8319 3.3947 -0 0 -0 -0 0 -0 -0 0 -0 
0 96.624 0 -0 0 -0 0.89443 -8.4181 -3.2729 -0.40917 -7.7822 0.36772 -0.40917 -7.7822 0.36772 -0.34671 -6.5369 0.31231 -0 0 -0 -0.15859 8.2929 9.0208 14.065 -1.2097 13.529 -0 0 -0 -0 0 -0 0.38621 9.7656 -15.027 6.3751 -0.090505 4.4755 -0 0 -0 2.4404 -1.3221 0.20955 2.4404 -1.3221 0.20955 0.89443 -8.4181 -3.2729 -1.8764 9.0664 3.7306 -1.3818 5.6823 -2.248 -0 0 -0 -0 0 -0 -0 0 -0 0.89443 -8.4181 -3.2729 0.82705 10.434 -10.559 0.10747 4.8203 3.4053 -0 0 -0 -0 0 -0 -0 0 -0 
0 96.624 0 -0 0 -0 0.89557 -8.4163 -3.2838 -0.41411 -7.7677 0.37004 -0.41411 -7.7677 0.37004 -0.35088 -6.5247 0.3143 -0 0 -0 -0.1475 8.2666 9.027 14.074 -1.2473 13.415 -0 0 -0 -0 0 -0 0.38631 9.7385 -15.034 6.3871 -0.080013 4.4935 -0 0 -0 2.4392 -1.332 0.21224 2.4392 -1.332 0.21224 0.89557 -8.4163 -3.2838 -1.8761 9.0665 3.7263 -1.3889 5.6858 -2.2461 -0 0 -0 -0 0 -0 -0 0 -0 0.89557 -8.4163 -3.2838 0.82209 10.436 -10.554 0.10911 4.8113 3.4152 -0 0 -0 -0 0 -0 -0 0 -0 
